<svg width="40" height="40" viewBox="0 0 40 40" fill="none" xmlns="http://www.w3.org/2000/svg">
<path d="M14.1837 13.9224C13.8647 14.3733 13.9716 14.9973 14.4224 15.3163C14.8733 15.6353 15.4973 15.5284 15.8163 15.0776L14.1837 13.9224ZM15.8072 28.9097C15.4811 28.4639 14.8554 28.3668 14.4097 28.6928C13.9639 29.0189 13.8668 29.6446 14.1928 30.0903L15.8072 28.9097ZM16 19C16.5523 19 17 18.5523 17 18C17 17.4477 16.5523 17 16 17V19ZM9 17C8.44772 17 8 17.4477 8 18C8 18.5523 8.44772 19 9 19V17ZM38 22C38 28.6274 32.6274 34 26 34V36C33.732 36 40 29.732 40 22H38ZM26 10C32.6274 10 38 15.3726 38 22H40C40 14.268 33.732 8 26 8V10ZM15.8163 15.0776C17.9733 12.029 21.9205 10 26 10V8C21.3068 8 16.7354 10.3158 14.1837 13.9224L15.8163 15.0776ZM26 34C22.0054 34 17.9832 31.885 15.8072 28.9097L14.1928 30.0903C16.7465 33.5819 21.369 36 26 36V34ZM16 17H9V19H16V17Z" fill="#365EDC"/>
<path d="M16 23C16.5523 23 17 22.5523 17 22C17 21.4477 16.5523 21 16 21V23ZM1 21C0.447715 21 0 21.4477 0 22C0 22.5523 0.447715 23 1 23V21ZM16 21H1V23H16V21Z" fill="#365EDC"/>
<path d="M16 27C16.5523 27 17 26.5523 17 26C17 25.4477 16.5523 25 16 25V27ZM6 25C5.44772 25 5 25.4477 5 26C5 26.5523 5.44772 27 6 27V25ZM16 25H6V27H16V25Z" fill="#365EDC"/>
<path d="M22.5 20L25.4353 23.4246C25.4711 23.4663 25.5339 23.4713 25.5759 23.4358L32 18" stroke="#365EDC" stroke-width="2" stroke-linecap="round"/>
<path d="M23 3.5C22.4477 3.5 22 3.94772 22 4.5C22 5.05228 22.4477 5.5 23 5.5V3.5ZM28.5 5.5C29.0523 5.5 29.5 5.05228 29.5 4.5C29.5 3.94772 29.0523 3.5 28.5 3.5V5.5ZM23 5.5H25.75V3.5H23V5.5ZM25.75 5.5H28.5V3.5H25.75V5.5ZM24.75 4.5V8.89921H26.75V4.5H24.75Z" fill="#365EDC"/>
<path d="M26 34.5V9.5L34.5 11.5L38.5 17V23L35.5 31L29 34.5H26Z" fill="#365EDC" fill-opacity="0.15"/>
</svg>
