<svg width="40" height="40" viewBox="0 0 40 40" fill="none" xmlns="http://www.w3.org/2000/svg">
<g clip-path="url(#clip0)">
<path d="M20 5.02054L8.95522 1.65214L11.5605 12.9014L20 5.02054ZM10.2894 16.3861C9.95028 15.9501 9.32201 15.8716 8.88606 16.2106C8.45011 16.5497 8.37158 17.178 8.71065 17.6139L10.2894 16.3861ZM37.6153 10.7883C38.0506 10.4485 38.1281 9.8201 37.7883 9.38473C37.4485 8.94935 36.8201 8.87188 36.3847 9.21168L37.6153 10.7883ZM16.377 25.8419L17.1664 25.2279L16.377 25.8419ZM16.6579 25.8767L16.0427 25.0884L16.6579 25.8767ZM33 21.0205C33 29.3048 26.2843 36.0205 18 36.0205V38.0205C27.3888 38.0205 35 30.4094 35 21.0205H33ZM18 36.0205C9.76893 36.0205 4 29.7357 4 21.3967H2C2 30.7308 8.55797 38.0205 18 38.0205V36.0205ZM4 21.3967C4 16.1805 6.83599 10.7189 11.7281 7.91923L10.7347 6.18338C5.17572 9.36468 2 15.5159 2 21.3967H4ZM23.1563 6.9596C25.9351 7.9768 28.3299 9.78657 30.0615 12.117L31.6669 10.9241C29.7054 8.28435 26.9931 6.23428 23.8438 5.08147L23.1563 6.9596ZM32.1479 16.0292C32.6994 17.5875 33 19.2667 33 21.0205H35C35 19.0366 34.6597 17.1319 34.0334 15.362L32.1479 16.0292ZM8.71065 17.6139L15.5877 26.4558L17.1664 25.2279L10.2894 16.3861L8.71065 17.6139ZM17.2732 26.6651L37.6153 10.7883L36.3847 9.21168L16.0427 25.0884L17.2732 26.6651ZM15.5877 26.4558C15.995 26.9796 16.7501 27.0733 17.2732 26.6651L16.0427 25.0884C16.3914 24.8163 16.8948 24.8787 17.1664 25.2279L15.5877 26.4558Z" fill="#365EDC"/>
<path d="M17.5 37L17 6.5L23.5 7L26.5 8.5L29 10.5L30 12L31.5 14L32.5 16.5L33 19.5L32.5 27L27.5 33.5L23 36.5556L17.5 37Z" fill="#365EDC" fill-opacity="0.15"/>
</g>
<defs>
<clipPath id="clip0">
<rect width="40" height="40" fill="white"/>
</clipPath>
</defs>
</svg>
