<svg width="40" height="40" viewBox="0 0 40 40" fill="none" xmlns="http://www.w3.org/2000/svg">
<g clip-path="url(#clip0)">
<path d="M16.6456 23.8782C16.852 26.0674 17.1546 28.0533 17.4274 29.7419C17.6126 30.8877 17.8004 31.8255 18.0157 32.5713C18.0533 32.7013 17.9568 32.8328 17.8215 32.8328L15.4966 32.8328C14.7738 32.8328 12.8088 37.9483 12.4312 38.7025C12.3628 38.8392 12.4623 39 12.6153 39H28.4137C28.5667 39 28.6662 38.8392 28.5978 38.7025C28.2203 37.9483 26.2552 32.8328 25.5324 32.8328L22.1886 32.8328C22.0535 32.8328 21.957 32.7017 21.9942 32.5717C22.2079 31.8251 22.3929 30.8869 22.5726 29.7419C22.8444 28.0091 23.1297 26.1292 23.332 23.8814C23.339 23.8035 23.3906 23.7365 23.4642 23.7103L23.7369 23.6131C23.7663 23.6026 23.7978 23.5992 23.8288 23.6031L27.4466 24.0548C27.6265 24.0772 27.8027 24.1234 27.9706 24.192L38.7162 28.5829C38.8608 28.642 39.0159 28.525 38.9987 28.37L38.5338 24.1911C38.5267 24.1266 38.4894 24.0693 38.4334 24.0365L23.6907 15.4161C23.6302 15.3808 23.5927 15.3157 23.5916 15.2457C23.4665 7.19651 22.5471 1.0188 20.2812 1.00004C18.0149 0.981283 16.7783 7.19015 16.471 15.2485C16.4684 15.317 16.431 15.3801 16.3717 15.4146L1.56663 24.0365C1.51058 24.0693 1.47333 24.1266 1.46616 24.1911L1.00132 28.37C0.98407 28.525 1.13923 28.642 1.28379 28.5829L12.0294 24.192C12.1973 24.1234 12.3735 24.0772 12.5534 24.0548L16.1694 23.6033C16.2016 23.5993 16.2342 23.6031 16.2645 23.6145L16.5167 23.7093C16.5884 23.7362 16.6384 23.8019 16.6456 23.8782Z" stroke="#365EDC" stroke-width="2"/>
<path d="M20 39.5V1.5L20.5 1L22 3L24 15.5L35.5 22L38 24.5L39 28.5L31 25.5L23.5 24L22.5 32.5L24.5 32L26 34L28 38L27 39L20 39.5Z" fill="#365EDC" fill-opacity="0.15"/>
</g>
<defs>
<clipPath id="clip0">
<rect width="40" height="40" fill="white"/>
</clipPath>
</defs>
</svg>
