<svg width="40" height="40" viewBox="0 0 40 40" fill="none" xmlns="http://www.w3.org/2000/svg">
<g clip-path="url(#clip0)">
<path d="M35.477 16.6842C35.477 24.7941 28.9075 38 20.8035 38C12.6996 38 6.13002 24.7941 6.13002 16.6842C6.13002 13.5049 3.94075 7.24584 5.65668 4.84211C6.82117 3.21084 10.0778 4.53977 13 4C16.0185 3.44244 18.0326 2 20.8035 2C23.5745 2 25.9815 3.44244 29 4C31.9222 4.53977 35.2592 3.21084 36.4237 4.84211C38.1396 7.24584 35.477 13.5049 35.477 16.6842Z" stroke="#365EDC" stroke-width="2"/>
<path d="M27.5 34.5L24 37.5L21 38.3571V20.1786V2L24 3L29 4.5H34.5H36.5L37 7.5L35.5 16L34 26L27.5 34.5Z" fill="#365EDC" fill-opacity="0.15"/>
<path d="M16 18.5455L20.0426 22.932C20.078 22.9704 20.1369 22.9751 20.178 22.9428L29 16" stroke="#365EDC" stroke-width="2" stroke-linecap="round"/>
</g>
<defs>
<clipPath id="clip0">
<rect width="40" height="40" fill="white"/>
</clipPath>
</defs>
</svg>
