<svg width="40" height="40" viewBox="0 0 40 40" fill="none" xmlns="http://www.w3.org/2000/svg">
<g clip-path="url(#clip0)">
<path d="M9 10.5C8.44772 10.5 8 10.9477 8 11.5C8 12.0523 8.44772 12.5 9 12.5V10.5ZM31.5 12.5C32.0523 12.5 32.5 12.0523 32.5 11.5C32.5 10.9477 32.0523 10.5 31.5 10.5V12.5ZM21 3C21 2.44772 20.5523 2 20 2C19.4477 2 19 2.44772 19 3H21ZM17.5 13C16.9477 13 16.5 13.4477 16.5 14C16.5 14.5523 16.9477 15 17.5 15V13ZM22.5 15C23.0523 15 23.5 14.5523 23.5 14C23.5 13.4477 23.0523 13 22.5 13V15ZM25.308 19L24.3869 18.6105L25.308 19ZM39 20C39.5523 20 40 19.5523 40 19C40 18.4477 39.5523 18 39 18V20ZM14.692 19L15.6131 18.6105L14.692 19ZM1 18C0.447715 18 0 18.4477 0 19C0 19.5523 0.447715 20 1 20V18ZM15 15.5C15 14.1817 15.3037 12.965 15.8162 11.951L14.0311 11.049C13.3735 12.3504 13 13.8771 13 15.5H15ZM15.8162 11.951C16.755 10.0933 18.3323 9 20 9V7C17.3932 7 15.218 8.70032 14.0311 11.049L15.8162 11.951ZM14.9236 10.5H9V12.5H14.9236V10.5ZM20 9C21.6677 9 23.245 10.0933 24.1838 11.951L25.9689 11.049C24.7819 8.70032 22.6068 7 20 7V9ZM24.1838 11.951C24.6963 12.965 25 14.1817 25 15.5H27C27 13.8771 26.6265 12.3504 25.9689 11.049L24.1838 11.951ZM25.0764 12.5H31.5V10.5H25.0764V12.5ZM21 8V3H19V8H21ZM17.5 15H22.5V13H17.5V15ZM25 15.5C25 16.6328 24.7757 17.6912 24.3869 18.6105L26.229 19.3895C26.7239 18.2191 27 16.8954 27 15.5H25ZM24.3869 18.6105C23.4913 20.7284 21.7942 22 20 22V24C22.8107 24 25.1126 22.0294 26.229 19.3895L24.3869 18.6105ZM25.308 20H39V18H25.308V20ZM20 22C18.2058 22 16.5087 20.7284 15.6131 18.6105L13.771 19.3895C14.8874 22.0294 17.1893 24 20 24V22ZM15.6131 18.6105C15.2243 17.6912 15 16.6328 15 15.5H13C13 16.8954 13.2761 18.2191 13.771 19.3895L15.6131 18.6105ZM14.692 18H1V20H14.692V18Z" fill="#365EDC"/>
<circle cx="7" cy="21" r="2" stroke="#365EDC" stroke-width="2"/>
<circle cx="33" cy="21" r="2" stroke="#365EDC" stroke-width="2"/>
<path d="M16 32L18.9353 35.4246C18.9711 35.4663 19.0339 35.4713 19.0759 35.4358L25.5 30" stroke="#365EDC" stroke-width="2" stroke-linecap="round"/>
<path d="M20 23V8L23.5 9L26 13V17.5L23.5 21L21 23H20Z" fill="#365EDC" fill-opacity="0.15"/>
<path d="M31.5 19.5V21.5L33 23L34.5 22V19.5L33.5 19L31.5 19.5Z" fill="#365EDC" fill-opacity="0.15"/>
</g>
<defs>
<clipPath id="clip0">
<rect width="40" height="40" fill="white"/>
</clipPath>
</defs>
</svg>
